HIERARCHY
ROOT Hips
{
	OFFSET 0.00000 0.00000 0.00000
	CHANNELS 6 Xposition Yposition Zposition Zrotation Yrotation Xrotation 
	JOINT LHipJoint
	{
		OFFSET 0 0 0
		CHANNELS 3 Zrotation Yrotation Xrotation
		JOINT LeftHip
		{
			OFFSET 1.48831 -1.59570 0.95625
			CHANNELS 3 Zrotation Yrotation Xrotation
			JOINT LeftKnee
			{
				OFFSET 2.20856 -6.06797 0.00000
				CHANNELS 3 Zrotation Yrotation Xrotation
				JOINT LeftAnkle
				{
					OFFSET 2.62924 -7.22379 0.00000
					CHANNELS 3 Zrotation Yrotation Xrotation
					JOINT LeftToe
					{
						OFFSET 0.16802 -0.46163 2.41673
						CHANNELS 3 Zrotation Yrotation Xrotation
						End Site
						{
							OFFSET 0.00000 -0.00000 1.23760
						}
					}
				}
			}
		}
	}
	JOINT RHipJoint
	{
		OFFSET 0 0 0
		CHANNELS 3 Zrotation Yrotation Xrotation
		JOINT RightHip
		{
			OFFSET -1.56796 -1.59570 0.95625
			CHANNELS 3 Zrotation Yrotation Xrotation
			JOINT RightKnee
			{
				OFFSET -2.29239 -6.29829 0.00000
				CHANNELS 3 Zrotation Yrotation Xrotation
				JOINT RightAnkle
				{
					OFFSET -2.66963 -7.33475 0.00000
					CHANNELS 3 Zrotation Yrotation Xrotation
					JOINT RightToe
					{
						OFFSET -0.18185 -0.49964 2.34359
						CHANNELS 3 Zrotation Yrotation Xrotation
						End Site
						{
							OFFSET -0.00000 -0.00000 1.20477
						}
					}
				}
			}
		}
	}
	JOINT lowerback
	{
		OFFSET 0 0 0
		CHANNELS 3 Zrotation Yrotation Xrotation
		JOINT Chest
		{
			OFFSET 0.03505 2.15832 -0.34324
			CHANNELS 3 Zrotation Yrotation Xrotation
			JOINT Chest2
			{
				OFFSET -0.01089 2.17963 0.04689
				CHANNELS 3 Zrotation Yrotation Xrotation
				JOINT lowerneck
				{
					OFFSET 0 0 0
					CHANNELS 3 Zrotation Yrotation Xrotation
					JOINT Neck
					{
						OFFSET 0.04686 1.69404 0.22159
						CHANNELS 3 Zrotation Yrotation Xrotation
						JOINT Head
						{
							OFFSET 0.00265 1.69305 -0.01513
							CHANNELS 3 Zrotation Yrotation Xrotation
							End Site
							{
								OFFSET -0.00415 1.80215 -0.03034
							}
						}
					}
				}
				JOINT LeftCollar
				{
					OFFSET 0 0 0
					CHANNELS 3 Zrotation Yrotation Xrotation
					JOINT LeftShoulder
					{
						OFFSET 3.67184 1.11724 -0.19002
CHANNELS 3 Zrotation Xrotation Yrotation
						JOINT LeftElbow
						{
OFFSET 0 -5.177140 -0.000000
CHANNELS 3 Zrotation Xrotation Yrotation
							JOINT LeftWrist
							{
OFFSET 0 -3.436790 -0.000000
CHANNELS 3 Zrotation Xrotation Yrotation
								JOINT lhand
								{
									OFFSET 0 0 0
CHANNELS 3 Zrotation Xrotation Yrotation
									JOINT LFingers
									{
OFFSET 0 -0.573120 -0.000000
CHANNELS 3 Zrotation Xrotation Yrotation
										End Site
										{
OFFSET 0 -0.462060 -0.000000
										}
									}
								}
								JOINT LThumb
								{
OFFSET 0 0.000000 0.000000
CHANNELS 3 Zrotation Xrotation Yrotation
									End Site
									{
OFFSET 0 -0.469120 0.469120
									}
								}
							}
						}
					}
				}
				JOINT RightCollar
				{
					OFFSET 0 0 0
					CHANNELS 3 Zrotation Yrotation Xrotation
					JOINT RightShoulder
					{
						OFFSET -3.59596 0.95831 -0.26050
CHANNELS 3 Zrotation Xrotation Yrotation
						JOINT RightElbow
						{
OFFSET 0 -5.239080 -0.000000
CHANNELS 3 Zrotation Xrotation Yrotation
							JOINT RightWrist
							{
OFFSET 0 -3.464850 -0.000000
CHANNELS 3 Zrotation Xrotation Yrotation
								JOINT rhand
								{
									OFFSET 0 0 0
CHANNELS 3 Zrotation Xrotation Yrotation
									JOINT RFingers
									{
OFFSET 0 -0.608750 -0.000000
CHANNELS 3 Zrotation Xrotation Yrotation
										End Site
										{
OFFSET 0 -0.490790 -0.000000
										}
									}
								}
								JOINT RThumb
								{
OFFSET 0 0.000000 0.000000
CHANNELS 3 Zrotation Xrotation Yrotation
									End Site
									{
OFFSET 0 -0.498290 0.498290
									}
								}
							}
						}
					}
				}
			}
		}
	}
}
MOTION
Frames: 6
Frame Time: 0.008333333333333333
4.814855 16.041639 -3.334482 21.189054 -51.801610 36.761014 0.000000 0.000000 0.000000 -31.945461 -12.784275 -69.110948 1.776866 8.384965 23.889630 -0.894818 -16.634406 8.757810 2.151599 9.174842 26.343876 0.000000 0.000000 0.000000 -21.964555 5.745960 -71.507934 -5.783126 -14.214787 44.104839 -1.875345 -7.831237 -29.674083 -0.001278 -0.226479 0.622310 10.707876 0.187251 54.177329 5.905188 4.318212 17.084048 0.005484 1.702609 -1.459264 1.790519 -3.367422 -11.319473 2.580180 -4.866677 -18.787474 0.601585 -2.991210 -4.269339 0.000000 0.000000 0.000000 137.789440 -41.105760 59.537131 25.500809 -36.711470 8.587477 28.935753 -36.341368 1.108294 0.000000 0.000000 0.000000 -7.125000 0.000000 0.000000 1.841226 28.711529 0.730655 0.000000 0.000000 0.000000 -149.060435 -47.893695 -75.349518 -8.014066 -13.575569 -0.955446 -33.862118 36.410913 14.035213 0.000000 0.000000 0.000000 7.125000 0.000000 0.000000 -6.124313 46.641475 0.249001
4.809599 16.047950 -3.293314 20.747892 -51.462089 37.565305 0.000000 0.000000 0.000000 -32.445233 -12.493946 -69.527881 1.748281 8.320844 23.692916 -0.929836 -17.103273 10.009280 2.338175 9.537550 27.491803 0.000000 0.000000 0.000000 -21.739773 5.659126 -71.604895 -5.745449 -14.177033 43.951331 -1.896769 -7.978125 -29.902837 -0.002417 -0.318695 0.875633 10.607452 0.012873 54.318351 5.905221 4.118468 17.021966 0.126166 1.599975 -1.555986 1.672341 -3.366750 -10.925810 2.592015 -4.841915 -18.590235 0.629235 -2.960715 -4.259832 0.000000 0.000000 0.000000 139.903309 -41.624508 60.983467 25.455050 -36.665450 8.560117 29.014022 -36.101620 1.182762 0.000000 0.000000 0.000000 -7.125000 0.000000 0.000000 1.899954 28.625388 0.757835 0.000000 0.000000 0.000000 -149.657199 -47.711904 -74.882652 -8.206113 -13.886421 -1.000986 -33.858428 34.894452 14.082651 0.000000 0.000000 0.000000 7.125000 0.000000 0.000000 -6.119495 46.696550 0.257117
4.801532 16.048222 -3.257979 20.413628 -51.059519 38.263893 0.000000 0.000000 0.000000 -33.204535 -12.203392 -69.936091 1.711829 8.238112 23.439797 -0.986659 -17.759385 11.188087 2.344273 9.549008 27.528269 0.000000 0.000000 0.000000 -21.626452 5.612828 -71.735782 -5.751696 -14.183296 43.976863 -1.943841 -8.043177 -30.242043 -0.006623 -0.526256 1.446105 10.428205 -0.096323 54.333001 5.959433 3.934665 17.038369 0.330248 1.504235 -1.567168 1.545490 -3.378520 -10.669741 2.667466 -4.832122 -18.428319 0.677327 -2.942810 -4.237842 0.000000 0.000000 0.000000 141.868795 -42.235127 62.334942 25.472783 -36.683283 8.570736 29.009124 -35.938269 0.995427 0.000000 0.000000 0.000000 -7.125000 0.000000 0.000000 1.901466 28.839389 0.748812 0.000000 0.000000 0.000000 -150.197932 -47.529856 -74.816032 -8.372014 -14.154020 -1.041238 -33.846692 33.860870 14.116897 0.000000 0.000000 0.000000 7.125000 0.000000 0.000000 -6.107147 46.734772 0.262458
4.794533 16.050184 -3.228078 19.990405 -50.581381 38.895187 0.000000 0.000000 0.000000 -33.550318 -12.084631 -70.175228 1.686030 8.178876 23.258695 -1.026401 -18.205453 11.917725 2.311690 9.487251 27.331652 0.000000 0.000000 0.000000 -21.414489 5.637096 -71.688873 -5.746324 -14.177852 43.954791 -2.002876 -8.053799 -30.618930 -0.012657 -0.726742 1.997325 10.335891 -0.171088 54.495860 6.023094 3.851752 17.006941 0.474233 1.452310 -1.632649 1.436729 -3.401996 -10.443212 2.834696 -4.828359 -18.410422 0.756598 -2.938010 -4.263258 0.000000 0.000000 0.000000 143.708768 -42.992119 63.477689 25.583759 -36.794732 8.637136 28.806022 -35.761262 0.729295 0.000000 0.000000 0.000000 -7.125000 0.000000 0.000000 1.750202 29.145527 0.676505 0.000000 0.000000 0.000000 -150.432581 -47.414151 -74.882438 -8.497172 -14.355487 -1.072010 -34.055695 33.488935 14.231178 0.000000 0.000000 0.000000 7.125000 0.000000 0.000000 -6.307449 46.901558 0.297122
4.791700 16.052600 -3.202145 19.700863 -50.176564 39.348835 0.000000 0.000000 0.000000 -33.628577 -12.101566 -70.280773 1.668746 8.139140 23.137420 -1.035251 -18.395141 12.472179 2.408524 9.669645 27.913544 0.000000 0.000000 0.000000 -21.211466 5.551659 -71.597845 -5.729549 -14.161049 43.886396 -2.045359 -7.892990 -30.784768 -0.020302 -0.920003 2.528645 10.242582 -0.225611 54.630651 6.014892 3.778332 16.991254 0.537207 1.414493 -1.671647 1.377186 -3.416358 -10.277270 2.916920 -4.828307 -18.458215 0.799560 -2.937353 -4.306660 0.000000 0.000000 0.000000 145.221697 -43.711339 64.146679 25.920006 -37.129505 8.839314 28.570814 -35.478786 0.445625 0.000000 0.000000 0.000000 -7.125000 0.000000 0.000000 1.572573 29.470636 0.595637 0.000000 0.000000 0.000000 -150.457828 -47.314373 -75.005221 -8.561912 -14.459620 -1.088153 -34.329111 33.375076 14.271204 0.000000 0.000000 0.000000 7.125000 0.000000 0.000000 -6.573309 46.992014 0.324455
4.790133 16.050288 -3.183796 19.598594 -49.769041 39.691267 0.000000 0.000000 0.000000 -33.780711 -12.194615 -70.391838 1.649457 8.094296 23.000803 -1.035344 -18.559583 13.135953 2.517216 9.869082 28.553786 0.000000 0.000000 0.000000 -21.116505 5.360426 -71.594805 -5.733390 -14.164918 43.902073 -2.091547 -7.608361 -30.899289 -0.033759 -1.185284 3.258781 10.162344 -0.259040 54.585082 6.000460 3.711989 17.012662 0.579371 1.388741 -1.652784 1.321125 -3.466685 -10.127112 2.966204 -4.884087 -18.561933 0.832740 -2.966203 -4.369202 0.000000 0.000000 0.000000 146.357293 -44.178487 64.148774 26.484644 -37.683178 9.182324 28.373652 -35.073785 -0.031756 0.000000 0.000000 0.000000 -7.125000 0.000000 0.000000 1.426286 30.014238 0.521778 0.000000 0.000000 0.000000 -150.258426 -47.164557 -74.938681 -8.629520 -14.568066 -1.105094 -34.585121 33.108123 14.285706 0.000000 0.000000 0.000000 7.125000 0.000000 0.000000 -6.823170 47.050025 0.346764
